<svg width="321" height="50" viewBox="0 0 321 50" fill="none" xmlns="http://www.w3.org/2000/svg">
<rect width="321" height="50" fill="white"/>
<path d="M141.983 21.7414C141.373 20.4619 140.216 19.6354 138.474 19.6354C137.939 19.6447 137.414 19.7767 136.938 20.0213C136.462 20.2659 136.049 20.6165 135.73 21.046L135.667 21.1235V16.1088C135.667 16.0798 135.655 16.052 135.635 16.0315C135.614 16.011 135.586 15.9995 135.557 15.9995H133.094C133.065 16 133.038 16.0118 133.018 16.0322C132.998 16.0526 132.986 16.0801 132.986 16.1088V30.4932C132.986 30.5217 132.998 30.549 133.018 30.5691C133.038 30.5892 133.065 30.6005 133.094 30.6005H135.732C135.761 30.6005 135.788 30.5893 135.809 30.5692C135.829 30.5491 135.841 30.5218 135.841 30.4932V24.36C135.841 23.1679 136.636 22.3235 137.908 22.3235C139.298 22.3235 139.65 23.4679 139.65 24.6341V30.4932C139.65 30.5217 139.661 30.549 139.681 30.5691C139.702 30.5892 139.729 30.6005 139.757 30.6005H142.39C142.418 30.6005 142.446 30.5893 142.466 30.5692C142.487 30.5491 142.499 30.5218 142.499 30.4932V24.2845C142.499 24.0719 142.499 23.8633 142.471 23.6606C142.426 22.9965 142.26 22.3462 141.983 21.7414Z" fill="#5A31F4"/>
<path d="M128.808 23.873C128.808 23.873 127.465 23.5571 126.97 23.4299C126.476 23.3028 125.611 23.0326 125.611 22.3789C125.611 21.7252 126.309 21.5166 127.016 21.5166C127.723 21.5166 128.51 21.6875 128.572 22.4723C128.574 22.5006 128.587 22.5269 128.608 22.546C128.629 22.5651 128.657 22.5757 128.685 22.5756L131.286 22.5657C131.301 22.5657 131.316 22.5626 131.33 22.5565C131.344 22.5504 131.357 22.5415 131.367 22.5303C131.378 22.5191 131.386 22.5059 131.391 22.4915C131.396 22.477 131.398 22.4617 131.397 22.4465C131.236 19.9351 129.033 19.0371 127 19.0371C124.59 19.0371 122.828 20.6265 122.828 22.3789C122.828 23.6584 123.189 24.8584 126.033 25.6929C126.531 25.8379 127.209 26.0267 127.801 26.1916C128.512 26.3903 128.896 26.6903 128.896 27.1631C128.896 27.7115 128.101 28.0929 127.32 28.0929C126.19 28.0929 125.387 27.6737 125.321 26.9207C125.318 26.8932 125.304 26.8678 125.284 26.8495C125.263 26.8312 125.236 26.8212 125.208 26.8214L122.613 26.8333C122.598 26.8333 122.583 26.8364 122.569 26.8423C122.555 26.8482 122.542 26.8569 122.532 26.8679C122.521 26.8788 122.513 26.8918 122.508 26.906C122.502 26.9202 122.5 26.9353 122.5 26.9505C122.619 29.3208 124.908 30.5983 127.042 30.5983C130.221 30.5983 131.657 28.8102 131.657 27.1353C131.661 26.3485 131.48 24.5564 128.808 23.873Z" fill="#5A31F4"/>
<path d="M162.266 19.6313C160.944 19.6313 159.838 20.3624 159.125 21.2446V19.7346C159.125 19.7065 159.114 19.6795 159.094 19.6594C159.074 19.6394 159.047 19.6278 159.019 19.6273H156.552C156.523 19.6273 156.496 19.6386 156.476 19.6587C156.456 19.6789 156.444 19.7062 156.444 19.7346V33.8409C156.445 33.869 156.456 33.8958 156.476 33.9155C156.497 33.9351 156.524 33.9462 156.552 33.9462H159.192C159.22 33.9462 159.247 33.9351 159.267 33.9153C159.286 33.8956 159.297 33.8688 159.297 33.8409V29.2037H159.337C159.756 29.8434 160.903 30.6103 162.401 30.6103C165.218 30.6103 167.566 28.2739 167.566 25.1168C167.568 22.087 165.232 19.6313 162.266 19.6313ZM162.021 27.9222C161.465 27.936 160.917 27.7838 160.448 27.485C159.979 27.1862 159.609 26.7543 159.387 26.2445C159.164 25.7347 159.098 25.1701 159.198 24.6227C159.297 24.0754 159.557 23.5701 159.945 23.1714C160.333 22.7727 160.831 22.4986 161.376 22.3841C161.92 22.2697 162.487 22.3201 163.002 22.5288C163.518 22.7376 163.96 23.0953 164.271 23.5562C164.583 24.0172 164.75 24.5605 164.751 25.1168C164.757 25.4805 164.691 25.8417 164.557 26.1798C164.422 26.5178 164.223 26.826 163.969 27.0867C163.715 27.3474 163.413 27.5554 163.079 27.6987C162.744 27.8421 162.385 27.9181 162.021 27.9222Z" fill="#5A31F4"/>
<path d="M148.63 19.0117C146.169 19.0117 144.941 19.8482 143.955 20.5177L143.926 20.5376C143.875 20.5724 143.839 20.6251 143.825 20.6851C143.812 20.7451 143.821 20.8081 143.852 20.8614L144.826 22.5383C144.844 22.5697 144.869 22.5966 144.899 22.6172C144.929 22.6378 144.963 22.6516 144.998 22.6575C145.034 22.6638 145.069 22.6623 145.104 22.653C145.138 22.6437 145.17 22.6269 145.197 22.6038L145.275 22.5403C145.781 22.1151 146.594 21.5469 148.561 21.3919C149.656 21.3045 150.601 21.5906 151.299 22.2423C152.066 22.9496 152.524 24.092 152.524 25.298C152.524 27.5172 151.217 28.9119 149.117 28.9397C147.387 28.9298 146.224 28.0278 146.224 26.6947C146.224 25.9874 146.544 25.5264 147.168 25.0655C147.216 25.0314 147.249 24.9813 147.263 24.9243C147.276 24.8673 147.269 24.8074 147.242 24.7556L146.367 23.1025C146.351 23.073 146.329 23.0468 146.303 23.0257C146.277 23.0046 146.247 22.9888 146.214 22.9794C146.181 22.9695 146.147 22.9667 146.112 22.9712C146.078 22.9756 146.045 22.9872 146.016 23.0052C145.034 23.5873 143.83 24.6522 143.896 26.6986C143.975 29.3033 146.141 31.2921 148.956 31.3736H149.097H149.29C152.636 31.2643 155.052 28.7808 155.052 25.4132C155.052 22.3217 152.799 19.0117 148.63 19.0117Z" fill="#5A31F4"/>
<path fill-rule="evenodd" clip-rule="evenodd" d="M173.013 16.0354H195.541C197.096 16.0354 198.356 17.2958 198.356 18.8507V31.1847C198.356 32.7396 197.096 34 195.541 34H173.013C171.458 34 170.197 32.7396 170.197 31.1847V18.8507C170.197 17.2958 171.458 16.0354 173.013 16.0354ZM178.067 25.8044C179.946 25.8044 181.292 24.4335 181.292 22.5123C181.292 20.601 179.946 19.2221 178.067 19.2221H174.749C174.709 19.2221 174.672 19.2378 174.644 19.2658C174.616 19.2937 174.6 19.3316 174.6 19.3712V28.4767C174.601 28.516 174.616 28.5536 174.644 28.5814C174.672 28.6093 174.71 28.6251 174.749 28.6257H175.997C176.036 28.6257 176.074 28.61 176.102 28.582C176.13 28.5541 176.146 28.5162 176.146 28.4767V25.9534C176.146 25.9139 176.161 25.876 176.189 25.848C176.217 25.8201 176.255 25.8044 176.295 25.8044H178.067ZM177.972 20.605C178.993 20.605 179.746 21.4116 179.746 22.5123C179.746 23.615 178.993 24.4196 177.972 24.4196H176.295C176.256 24.4196 176.218 24.4042 176.19 24.3767C176.162 24.3492 176.146 24.3118 176.146 24.2726V20.754C176.146 20.7146 176.162 20.677 176.19 20.6492C176.218 20.6213 176.255 20.6055 176.295 20.605H177.972ZM181.659 26.8793C181.646 26.5847 181.707 26.2916 181.836 26.0265C181.965 25.7615 182.158 25.5328 182.398 25.3614C182.883 24.9978 183.634 24.809 184.749 24.7653L185.931 24.7256V24.3759C185.931 23.6786 185.462 23.3825 184.709 23.3825C183.956 23.3825 183.481 23.6488 183.37 24.0839C183.361 24.1146 183.342 24.1415 183.316 24.1602C183.29 24.1789 183.259 24.1884 183.227 24.1872H182.06C182.039 24.1877 182.018 24.1835 181.998 24.1749C181.978 24.1664 181.961 24.1536 181.947 24.1375C181.932 24.1214 181.922 24.1024 181.916 24.0818C181.91 24.0612 181.908 24.0395 181.911 24.0183C182.086 22.9852 182.941 22.2004 184.763 22.2004C186.698 22.2004 187.395 23.1004 187.395 24.819V28.4707C187.395 28.4904 187.392 28.51 187.384 28.5283C187.377 28.5467 187.366 28.5633 187.352 28.5774C187.338 28.5914 187.322 28.6026 187.304 28.6102C187.285 28.6178 187.266 28.6217 187.246 28.6217H186.068C186.048 28.6217 186.029 28.6178 186.01 28.6102C185.992 28.6026 185.976 28.5914 185.962 28.5774C185.948 28.5633 185.937 28.5467 185.93 28.5283C185.922 28.51 185.919 28.4904 185.919 28.4707V28.1985C185.921 28.1746 185.915 28.1508 185.902 28.1304C185.89 28.1101 185.871 28.0944 185.848 28.0857C185.826 28.077 185.802 28.0757 185.778 28.0821C185.755 28.0885 185.735 28.1021 185.72 28.121C185.369 28.5045 184.796 28.7826 183.884 28.7826C182.547 28.7866 181.659 28.0873 181.659 26.8793ZM185.931 26.0846V25.8024L184.401 25.8819C183.594 25.9236 183.123 26.2594 183.123 26.8237C183.123 27.3343 183.555 27.6184 184.306 27.6184C185.327 27.6184 185.931 27.066 185.931 26.0866V26.0846ZM188.579 30.3203V31.3832C188.577 31.4176 188.587 31.4516 188.607 31.4797C188.627 31.5078 188.655 31.5284 188.688 31.5382C188.896 31.5948 189.111 31.6209 189.326 31.6157C190.468 31.6157 191.512 31.1984 192.108 29.5732L194.73 22.5777C194.738 22.5552 194.74 22.5312 194.736 22.5078C194.733 22.4843 194.724 22.462 194.71 22.4426C194.696 22.4233 194.678 22.4074 194.657 22.3964C194.636 22.3853 194.613 22.3794 194.589 22.379H193.367C193.335 22.3788 193.304 22.3887 193.279 22.4073C193.253 22.4258 193.234 22.4522 193.224 22.4824L191.78 26.9129C191.769 26.942 191.749 26.9669 191.724 26.9846C191.698 27.0022 191.668 27.0117 191.637 27.0117C191.606 27.0117 191.575 27.0022 191.55 26.9846C191.524 26.9669 191.505 26.942 191.494 26.9129L189.829 22.4704C189.818 22.442 189.798 22.4175 189.773 22.4002C189.748 22.3828 189.718 22.3734 189.688 22.3731H188.496C188.472 22.3734 188.449 22.3794 188.428 22.3904C188.407 22.4015 188.388 22.4173 188.375 22.4367C188.361 22.456 188.352 22.4783 188.348 22.5018C188.345 22.5253 188.347 22.5492 188.355 22.5718L190.806 28.8699C190.818 28.9026 190.818 28.9385 190.806 28.9712L190.729 29.2156C190.638 29.5188 190.449 29.7828 190.191 29.9655C189.932 30.1481 189.62 30.2388 189.304 30.2229C189.121 30.2227 188.938 30.2054 188.758 30.1713C188.736 30.1672 188.713 30.168 188.692 30.1736C188.67 30.1792 188.65 30.1894 188.633 30.2037C188.616 30.2179 188.603 30.2358 188.593 30.2559C188.584 30.2761 188.579 30.298 188.579 30.3203Z" fill="#5A31F4"/>
</svg>
