<svg width="64" height="17" viewBox="0 0 64 17" fill="none" xmlns="http://www.w3.org/2000/svg">
<path d="M23.586 3.71802H20.0954C19.8565 3.71802 19.6534 3.90531 19.6161 4.15981L18.2043 13.8204C18.1763 14.011 18.3131 14.1828 18.4922 14.1828H20.1587C20.3975 14.1828 20.6007 13.9955 20.6379 13.7405L21.0187 11.1349C21.0554 10.8798 21.2591 10.6925 21.4974 10.6925H22.6025C24.9018 10.6925 26.2288 9.49165 26.5754 7.1119C26.7316 6.07077 26.582 5.25273 26.1303 4.67983C25.6342 4.05074 24.7543 3.71802 23.586 3.71802ZM23.9887 7.24632C23.7978 8.59814 22.8408 8.59814 21.9155 8.59814H21.3887L21.7583 6.07352C21.7802 5.92093 21.9027 5.80855 22.0456 5.80855H22.287C22.9174 5.80855 23.512 5.80856 23.8192 6.19637C24.0025 6.42773 24.0586 6.77147 23.9887 7.24632Z" fill="#253B80"/>
<path d="M34.0201 7.20238H32.3485C32.2061 7.20238 32.0831 7.31476 32.0612 7.46735L31.9872 7.97194L31.8703 7.78905C31.5084 7.22221 30.7015 7.03271 29.896 7.03271C28.0489 7.03271 26.4713 8.54264 26.164 10.6607C26.0043 11.7173 26.2314 12.7276 26.7867 13.4321C27.2961 14.0799 28.0249 14.3499 28.8921 14.3499C30.3804 14.3499 31.2057 13.317 31.2057 13.317L31.1312 13.8183C31.1031 14.01 31.2399 14.1819 31.4181 14.1819H32.9237C33.1631 14.1819 33.3652 13.9946 33.403 13.7395L34.3064 7.56485C34.335 7.3748 34.1987 7.20238 34.0201 7.20238ZM31.6901 10.7136C31.5288 11.7443 30.7709 12.4362 29.8042 12.4362C29.3188 12.4362 28.9309 12.2681 28.6818 11.9497C28.4348 11.6336 28.3409 11.1835 28.4195 10.6822C28.57 9.66035 29.3407 8.94587 30.2926 8.94587C30.7673 8.94587 31.1532 9.11609 31.4073 9.43725C31.662 9.76171 31.7631 10.2145 31.6901 10.7136Z" fill="#253B80"/>
<path d="M42.9225 7.20264H41.2428C41.0825 7.20264 40.9319 7.28857 40.8411 7.43235L38.5244 11.1154L37.5424 7.57612C37.4806 7.35468 37.2913 7.20264 37.0769 7.20264H35.4263C35.2257 7.20264 35.0864 7.41417 35.1502 7.61799L37.0003 13.4781L35.2609 16.1283C35.1241 16.3371 35.2619 16.6241 35.4982 16.6241H37.1759C37.3352 16.6241 37.4842 16.5404 37.5745 16.3994L43.1614 7.69566C43.2951 7.48743 43.1578 7.20264 42.9225 7.20264Z" fill="#253B80"/>
<path d="M48.4837 3.71802H44.9926C44.7542 3.71802 44.5511 3.90531 44.5138 4.15981L43.1021 13.8204C43.074 14.011 43.2108 14.1828 43.3889 14.1828H45.1804C45.3468 14.1828 45.4892 14.0517 45.5152 13.8732L45.9159 11.1349C45.9526 10.8798 46.1563 10.6925 46.3946 10.6925H47.4991C49.799 10.6925 51.1255 9.49165 51.4726 7.1119C51.6293 6.07077 51.4787 5.25273 51.027 4.67983C50.5314 4.05074 49.652 3.71802 48.4837 3.71802ZM48.8864 7.24632C48.696 8.59814 47.739 8.59814 46.8132 8.59814H46.2869L46.657 6.07352C46.6789 5.92093 46.8004 5.80855 46.9438 5.80855H47.1852C47.8151 5.80855 48.4102 5.80856 48.7175 6.19637C48.9007 6.42773 48.9563 6.77147 48.8864 7.24632Z" fill="#179BD7"/>
<path d="M58.9171 7.20238H57.2465C57.1031 7.20238 56.9811 7.31476 56.9597 7.46735L56.8857 7.97194L56.7683 7.78905C56.4064 7.22221 55.6 7.03271 54.7946 7.03271C52.9474 7.03271 51.3703 8.54264 51.063 10.6607C50.9038 11.7173 51.1299 12.7276 51.6852 13.4321C52.1956 14.0799 52.9234 14.3499 53.7906 14.3499C55.2789 14.3499 56.1042 13.317 56.1042 13.317L56.0297 13.8183C56.0017 14.01 56.1384 14.1819 56.3176 14.1819H57.8228C58.0611 14.1819 58.2643 13.9946 58.3015 13.7395L59.2054 7.56485C59.233 7.3748 59.0962 7.20238 58.9171 7.20238ZM56.5871 10.7136C56.4268 11.7443 55.6679 12.4362 54.7012 12.4362C54.2168 12.4362 53.8279 12.2681 53.5788 11.9497C53.3318 11.6336 53.2389 11.1835 53.3165 10.6822C53.468 9.66035 54.2377 8.94587 55.1896 8.94587C55.6643 8.94587 56.0502 9.11609 56.3043 9.43725C56.56 9.76171 56.6611 10.2145 56.5871 10.7136Z" fill="#179BD7"/>
<path d="M60.888 3.98305L59.4553 13.8204C59.4273 14.011 59.564 14.1829 59.7422 14.1829H61.1825C61.4219 14.1829 61.625 13.9956 61.6618 13.7405L63.0746 4.08055C63.1026 3.88995 62.9658 3.71753 62.7877 3.71753H61.1749C61.0325 3.71808 60.91 3.83046 60.888 3.98305Z" fill="#179BD7"/>
<path d="M3.70853 16.0601L3.97546 14.2301L3.38085 14.2152H0.541504L2.5147 0.711841C2.52083 0.671077 2.54073 0.633067 2.56983 0.606075C2.59892 0.579082 2.63618 0.564209 2.67497 0.564209H7.46251C9.05189 0.564209 10.1487 0.92117 10.7214 1.62573C10.9899 1.95625 11.1609 2.30164 11.2435 2.68174C11.3303 3.08057 11.3318 3.55707 11.2471 4.13823L11.241 4.18065V4.55303L11.5095 4.71719C11.7356 4.84664 11.9152 4.99483 12.053 5.16449C12.2827 5.44709 12.4312 5.80625 12.494 6.23207C12.5588 6.67001 12.5374 7.19113 12.4312 7.78111C12.3087 8.45978 12.1107 9.05086 11.8433 9.53452C11.5972 9.98017 11.2839 10.3498 10.9118 10.6362C10.5565 10.9084 10.1344 11.115 9.65722 11.2472C9.1948 11.3772 8.66756 11.4427 8.08928 11.4427H7.71668C7.45026 11.4427 7.19148 11.5463 6.98835 11.7319C6.7847 11.9214 6.64995 12.1803 6.60861 12.4635L6.58054 12.6282L6.10893 15.8535L6.08749 15.9719C6.08188 16.0094 6.07218 16.0281 6.05789 16.0408C6.04513 16.0524 6.02676 16.0601 6.00889 16.0601H3.70853Z" fill="#253B80"/>
<path d="M11.7636 4.22339C11.7493 4.32199 11.733 4.4228 11.7146 4.52637C11.0832 8.02492 8.92323 9.23352 6.16452 9.23352H4.75991C4.42253 9.23352 4.13824 9.49793 4.08567 9.8571L3.36652 14.7796L3.16287 16.175C3.12867 16.4108 3.29711 16.6234 3.5176 16.6234H6.00885C6.30386 16.6234 6.55447 16.392 6.60091 16.078L6.62541 15.9414L7.09447 12.7288L7.12458 12.5525C7.17052 12.2374 7.42164 12.006 7.71665 12.006H8.08924C10.5029 12.006 12.3924 10.9484 12.9447 7.88775C13.1754 6.60919 13.0559 5.54161 12.4455 4.79078C12.2607 4.56437 12.0316 4.37653 11.7636 4.22339Z" fill="#179BD7"/>
<path d="M11.1034 3.93941C11.0069 3.90911 10.9074 3.88157 10.8053 3.85678C10.7027 3.83254 10.5976 3.81106 10.4894 3.79233C10.1107 3.72622 9.69573 3.69482 9.25117 3.69482H5.49872C5.40634 3.69482 5.31855 3.71741 5.23995 3.75817C5.06692 3.84797 4.9383 4.02479 4.90717 4.24128L4.10891 9.69816L4.08594 9.85737C4.13851 9.4982 4.4228 9.23378 4.76017 9.23378H6.16479C8.92349 9.23378 11.0835 8.02463 11.7149 4.52663C11.7337 4.42307 11.7496 4.32226 11.7639 4.22366C11.6041 4.13221 11.4311 4.05399 11.2448 3.98733C11.1989 3.97081 11.1514 3.95483 11.1034 3.93941Z" fill="#222D65"/>
<path d="M4.90696 4.24112C4.9381 4.02463 5.06672 3.8478 5.23974 3.75856C5.31886 3.7178 5.40613 3.69521 5.49852 3.69521H9.25097C9.69552 3.69521 10.1105 3.72661 10.4892 3.79272C10.5974 3.81144 10.7025 3.83293 10.8051 3.85717C10.9072 3.88196 11.0067 3.9095 11.1032 3.9398C11.1512 3.95522 11.1986 3.9712 11.2451 3.98717C11.4314 4.05383 11.6044 4.1326 11.7642 4.22349C11.952 2.93061 11.7626 2.05032 11.1149 1.25322C10.4009 0.375691 9.11214 0 7.46304 0H2.6755C2.33864 0 2.05129 0.264416 1.99922 0.624132L0.00509828 14.2663C-0.0342024 14.5363 0.158728 14.7797 0.410865 14.7797H3.36658L4.1087 9.698L4.90696 4.24112Z" fill="#253B80"/>
</svg>
