<svg width="13" height="16" viewBox="0 0 13 16" fill="none" xmlns="http://www.w3.org/2000/svg">
<circle cx="6.5" cy="8.5" r="6" stroke="#343A40"/>
<path d="M5.8608 9.95455V9.91193C5.86553 9.45975 5.91288 9.09991 6.00284 8.83239C6.0928 8.56487 6.22064 8.34825 6.38636 8.18253C6.55208 8.01681 6.75095 7.86411 6.98295 7.72443C7.12263 7.6392 7.24811 7.53859 7.35938 7.42259C7.47064 7.30421 7.55824 7.16809 7.62216 7.0142C7.68845 6.86032 7.72159 6.68987 7.72159 6.50284C7.72159 6.27083 7.66714 6.0696 7.55824 5.89915C7.44934 5.72869 7.30374 5.5973 7.12145 5.50497C6.93916 5.41264 6.73674 5.36648 6.5142 5.36648C6.32008 5.36648 6.13305 5.40672 5.95312 5.48722C5.7732 5.56771 5.62287 5.69437 5.50213 5.86719C5.38139 6.04001 5.31155 6.2661 5.29261 6.54545H4.39773C4.41667 6.14299 4.52083 5.79853 4.71023 5.51207C4.90199 5.22562 5.15412 5.00663 5.46662 4.85511C5.78149 4.7036 6.13068 4.62784 6.5142 4.62784C6.93087 4.62784 7.29309 4.7107 7.60085 4.87642C7.91098 5.04214 8.15009 5.26941 8.31818 5.55824C8.48864 5.84706 8.57386 6.17614 8.57386 6.54545C8.57386 6.80587 8.53362 7.04143 8.45312 7.25213C8.375 7.46283 8.26136 7.65104 8.11222 7.81676C7.96544 7.98248 7.78788 8.12926 7.57955 8.2571C7.37121 8.38731 7.20431 8.52462 7.07884 8.66903C6.95336 8.81108 6.86222 8.98035 6.8054 9.17685C6.74858 9.37334 6.7178 9.61837 6.71307 9.91193V9.95455H5.8608ZM6.31534 12.0568C6.14015 12.0568 5.98982 11.9941 5.86435 11.8686C5.73887 11.7431 5.67614 11.5928 5.67614 11.4176C5.67614 11.2424 5.73887 11.0921 5.86435 10.9666C5.98982 10.8411 6.14015 10.7784 6.31534 10.7784C6.49053 10.7784 6.64086 10.8411 6.76634 10.9666C6.89181 11.0921 6.95455 11.2424 6.95455 11.4176C6.95455 11.5336 6.92495 11.6402 6.86577 11.7372C6.80895 11.8343 6.73201 11.9124 6.63494 11.9716C6.54025 12.0284 6.43371 12.0568 6.31534 12.0568Z" fill="#343A40"/>
</svg>
